<svg width="122" height="27" viewBox="0 0 122 27" fill="none" xmlns="http://www.w3.org/2000/svg">
<path d="M6.208 26.34C4.372 26.34 2.88733 25.286 1.754 23.178C0.620667 21.07 0.054 18.0553 0.054 14.134C0.054 12.6153 0.178667 11.125 0.428 9.663C0.688667 8.201 1.07967 6.88067 1.601 5.702C2.12233 4.52333 2.774 3.58267 3.556 2.88C4.34933 2.17733 5.28433 1.826 6.361 1.826C7.12033 1.826 7.78333 2.06967 8.35 2.557C8.928 3.04433 9.37567 3.65067 9.693 4.376C10.0217 5.09 10.186 5.79833 10.186 6.501C10.186 7.15833 10.0557 7.70233 9.795 8.133C9.54567 8.55233 9.14333 8.762 8.588 8.762C7.976 8.762 7.54533 8.58633 7.296 8.235C7.04667 7.88367 6.922 7.41333 6.922 6.824C6.922 6.39333 7.007 6.03633 7.177 5.753C7.35833 5.46967 7.534 5.19767 7.704 4.937C7.88533 4.67633 7.976 4.36467 7.976 4.002C7.976 3.63933 7.88533 3.373 7.704 3.203C7.534 3.02166 7.32433 2.931 7.075 2.931C6.667 2.931 6.31 3.18033 6.004 3.679C5.70933 4.17767 5.46 4.84067 5.256 5.668C5.052 6.49533 4.88767 7.40767 4.763 8.405C4.64967 9.391 4.56467 10.3827 4.508 11.38C4.45133 12.3773 4.423 13.284 4.423 14.1C4.423 15.256 4.45133 16.3837 4.508 17.483C4.576 18.571 4.67233 19.5853 4.797 20.526C4.92167 21.4667 5.08033 22.294 5.273 23.008C5.46567 23.722 5.68667 24.283 5.936 24.691C6.19667 25.0877 6.48567 25.286 6.803 25.286C7.211 25.286 7.568 25.1613 7.874 24.912C8.18 24.6627 8.435 24.3283 8.639 23.909C8.85433 23.4783 9.02433 23.0023 9.149 22.481L10.033 23.008C9.80633 23.654 9.523 24.2263 9.183 24.725C8.843 25.2237 8.42933 25.6203 7.942 25.915C7.45467 26.1983 6.87667 26.34 6.208 26.34ZM17.7475 26.374C17.0789 26.374 16.4102 26.1813 15.7415 25.796C15.0729 25.4107 14.4552 24.8327 13.8885 24.062C13.3332 23.28 12.8855 22.3053 12.5455 21.138C12.2169 19.9707 12.0525 18.605 12.0525 17.041C12.0525 15.341 12.2282 13.913 12.5795 12.757C12.9309 11.5897 13.3899 10.6603 13.9565 9.969C14.5232 9.27767 15.1352 8.779 15.7925 8.473C16.4612 8.15567 17.1129 7.997 17.7475 7.997C18.3709 7.997 19.0169 8.15567 19.6855 8.473C20.3542 8.779 20.9719 9.27767 21.5385 9.969C22.1052 10.6603 22.5642 11.5897 22.9155 12.757C23.2782 13.913 23.4595 15.341 23.4595 17.041C23.4595 18.605 23.2895 19.9707 22.9495 21.138C22.6095 22.3053 22.1562 23.28 21.5895 24.062C21.0342 24.8327 20.4222 25.4107 19.7535 25.796C19.0849 26.1813 18.4162 26.374 17.7475 26.374ZM17.7475 25.218C18.2575 25.218 18.6429 24.555 18.9035 23.229C19.1755 21.903 19.3115 19.8403 19.3115 17.041C19.3115 14.2643 19.1755 12.2527 18.9035 11.006C18.6429 9.75933 18.2575 9.136 17.7475 9.136C17.2489 9.136 16.8635 9.75933 16.5915 11.006C16.3309 12.2527 16.2005 14.2643 16.2005 17.041C16.2005 19.8403 16.3309 21.903 16.5915 23.229C16.8635 24.555 17.2489 25.218 17.7475 25.218ZM30.6232 26.306C29.9659 26.306 29.3312 26.1927 28.7192 25.966C28.1072 25.7393 27.6085 25.32 27.2232 24.708C26.8379 24.096 26.6452 23.212 26.6452 22.056V9.221H24.3672V8.201H26.6452C27.1552 8.12167 27.6142 7.83267 28.0222 7.334C28.4302 6.83533 28.7702 6.21767 29.0422 5.481C29.3255 4.733 29.5239 3.94533 29.6372 3.118H30.7252V8.201H33.3772V9.221H30.7252V23.943C30.7252 24.4077 30.8329 24.725 31.0482 24.895C31.2749 25.0537 31.4902 25.133 31.6942 25.133C31.9095 25.133 32.1079 25.0877 32.2892 24.997C32.4705 24.9063 32.6009 24.8157 32.6802 24.725L33.2582 25.541C32.9635 25.779 32.6009 25.966 32.1702 26.102C31.7509 26.238 31.2352 26.306 30.6232 26.306ZM40.0197 26.306C39.3623 26.306 38.7277 26.1927 38.1157 25.966C37.5037 25.7393 37.005 25.32 36.6197 24.708C36.2343 24.096 36.0417 23.212 36.0417 22.056V9.221H33.7637V8.201H36.0417C36.5517 8.12167 37.0107 7.83267 37.4187 7.334C37.8267 6.83533 38.1667 6.21767 38.4387 5.481C38.722 4.733 38.9203 3.94533 39.0337 3.118H40.1217V8.201H42.7737V9.221H40.1217V23.943C40.1217 24.4077 40.2293 24.725 40.4447 24.895C40.6713 25.0537 40.8867 25.133 41.0907 25.133C41.306 25.133 41.5043 25.0877 41.6857 24.997C41.867 24.9063 41.9973 24.8157 42.0767 24.725L42.6547 25.541C42.36 25.779 41.9973 25.966 41.5667 26.102C41.1473 26.238 40.6317 26.306 40.0197 26.306ZM43.7042 26V24.98H45.4382V9.221H43.7042V8.201H49.4332V10.105C49.4898 9.88967 49.6315 9.61767 49.8582 9.289C50.0962 8.949 50.4305 8.64867 50.8612 8.388C51.2918 8.12733 51.8302 7.997 52.4762 7.997C53.1675 7.997 53.7965 8.15 54.3632 8.456C54.9412 8.75067 55.4002 9.30033 55.7402 10.105C56.0915 10.9097 56.2672 12.0713 56.2672 13.59V24.98H57.9332V26H50.9802V24.98H52.1872V13.692C52.1872 12.3773 52.1022 11.4083 51.9322 10.785C51.7735 10.1503 51.4845 9.833 51.0652 9.833C50.8498 9.833 50.6515 9.918 50.4702 10.088C50.2888 10.258 50.1302 10.496 49.9942 10.802C49.8582 11.0967 49.7448 11.4367 49.6542 11.822C49.5748 12.2073 49.5295 12.6153 49.5182 13.046V24.98H50.6742V26H43.7042ZM71.5185 26.34C69.6825 26.34 68.1979 25.286 67.0645 23.178C65.9312 21.07 65.3645 18.0553 65.3645 14.134C65.3645 12.6153 65.4892 11.125 65.7385 9.663C65.9992 8.201 66.3902 6.88067 66.9115 5.702C67.4329 4.52333 68.0845 3.58267 68.8665 2.88C69.6599 2.17733 70.5949 1.826 71.6715 1.826C72.4309 1.826 73.0939 2.06967 73.6605 2.557C74.2385 3.04433 74.6862 3.65067 75.0035 4.376C75.3322 5.09 75.4965 5.79833 75.4965 6.501C75.4965 7.15833 75.3662 7.70233 75.1055 8.133C74.8562 8.55233 74.4539 8.762 73.8985 8.762C73.2865 8.762 72.8559 8.58633 72.6065 8.235C72.3572 7.88367 72.2325 7.41333 72.2325 6.824C72.2325 6.39333 72.3175 6.03633 72.4875 5.753C72.6689 5.46967 72.8445 5.19767 73.0145 4.937C73.1959 4.67633 73.2865 4.36467 73.2865 4.002C73.2865 3.63933 73.1959 3.373 73.0145 3.203C72.8445 3.02166 72.6349 2.931 72.3855 2.931C71.9775 2.931 71.6205 3.18033 71.3145 3.679C71.0199 4.17767 70.7705 4.84067 70.5665 5.668C70.3625 6.49533 70.1982 7.40767 70.0735 8.405C69.9602 9.391 69.8752 10.3827 69.8185 11.38C69.7619 12.3773 69.7335 13.284 69.7335 14.1C69.7335 15.256 69.7619 16.3837 69.8185 17.483C69.8865 18.571 69.9829 19.5853 70.1075 20.526C70.2322 21.4667 70.3909 22.294 70.5835 23.008C70.7762 23.722 70.9972 24.283 71.2465 24.691C71.5072 25.0877 71.7962 25.286 72.1135 25.286C72.5215 25.286 72.8785 25.1613 73.1845 24.912C73.4905 24.6627 73.7455 24.3283 73.9495 23.909C74.1649 23.4783 74.3349 23.0023 74.4595 22.481L75.3435 23.008C75.1169 23.654 74.8335 24.2263 74.4935 24.725C74.1535 25.2237 73.7399 25.6203 73.2525 25.915C72.7652 26.1983 72.1872 26.34 71.5185 26.34ZM82.5141 26.374C81.7434 26.374 81.0521 26.2323 80.4401 25.949C79.8281 25.6543 79.3408 25.116 78.9781 24.334C78.6268 23.552 78.4511 22.4243 78.4511 20.951V9.238H76.8531V8.218H82.5311V20.509C82.5311 21.6423 82.5651 22.5207 82.6331 23.144C82.7124 23.756 82.8371 24.181 83.0071 24.419C83.1771 24.657 83.4038 24.776 83.6871 24.776C84.0044 24.776 84.2821 24.6117 84.5201 24.283C84.7694 23.943 84.9621 23.4783 85.0981 22.889C85.2454 22.2997 85.3191 21.631 85.3191 20.883V9.238H83.8741V8.218H89.3991V24.98H90.8101V26H85.7101L85.5231 24.215C85.4551 24.4983 85.2964 24.81 85.0471 25.15C84.8091 25.4787 84.4804 25.762 84.0611 26C83.6418 26.2493 83.1261 26.374 82.5141 26.374ZM91.5969 26V24.98H93.3139V9.221H91.5969V8.201H97.1049L97.2919 9.867C97.3485 9.697 97.4845 9.46467 97.6999 9.17C97.9152 8.864 98.1985 8.592 98.5499 8.354C98.9125 8.116 99.3262 7.997 99.7909 7.997C100.437 7.997 100.975 8.21233 101.406 8.643C101.837 9.06233 102.16 9.629 102.375 10.343C102.602 11.0457 102.715 11.8277 102.715 12.689C102.715 13.4257 102.568 13.9923 102.273 14.389C101.99 14.7857 101.599 14.984 101.1 14.984C100.635 14.984 100.261 14.814 99.9779 14.474C99.6945 14.1227 99.5529 13.6523 99.5529 13.063C99.5529 12.6663 99.6322 12.3433 99.7909 12.094C99.9495 11.8333 100.103 11.584 100.25 11.346C100.397 11.0967 100.471 10.7963 100.471 10.445C100.471 10.0143 100.392 9.697 100.233 9.493C100.086 9.27767 99.8475 9.17 99.5189 9.17C99.1675 9.17 98.8275 9.34567 98.4989 9.697C98.1702 10.0483 97.9039 10.5413 97.6999 11.176C97.4959 11.7993 97.3939 12.5417 97.3939 13.403V24.98H99.1279V26H91.5969ZM103.702 26V24.98H105.402V1.52H103.702V0.499998H109.482V24.98H111.182V26H103.702ZM116.91 26.374C116.298 26.374 115.805 26.289 115.431 26.119C115.068 25.9603 114.779 25.8017 114.564 25.643C114.348 25.473 114.144 25.388 113.952 25.388C113.793 25.388 113.685 25.4447 113.629 25.558C113.572 25.66 113.538 25.8073 113.527 26H112.592V20.441H113.697C113.765 21.0417 113.884 21.6367 114.054 22.226C114.235 22.804 114.462 23.331 114.734 23.807C115.017 24.2717 115.34 24.6457 115.703 24.929C116.065 25.2123 116.462 25.354 116.893 25.354C117.289 25.354 117.607 25.2747 117.845 25.116C118.083 24.9573 118.258 24.742 118.372 24.47C118.485 24.1867 118.542 23.875 118.542 23.535C118.542 23.0477 118.428 22.5603 118.202 22.073C117.975 21.5743 117.663 21.0643 117.267 20.543C116.87 20.0217 116.405 19.4833 115.873 18.928C114.943 17.9533 114.173 16.9673 113.561 15.97C112.949 14.9613 112.643 13.76 112.643 12.366C112.643 11.3233 112.847 10.4847 113.255 9.85C113.674 9.21533 114.201 8.75067 114.836 8.456C115.482 8.15 116.156 7.997 116.859 7.997C117.357 7.997 117.76 8.065 118.066 8.201C118.383 8.337 118.638 8.473 118.831 8.609C119.023 8.73367 119.188 8.796 119.324 8.796C119.437 8.796 119.522 8.75067 119.579 8.66C119.635 8.56933 119.669 8.41633 119.681 8.201H120.633V13.607H119.528C119.482 13.0743 119.392 12.5417 119.256 12.009C119.131 11.465 118.961 10.972 118.746 10.53C118.53 10.088 118.27 9.731 117.964 9.459C117.658 9.187 117.306 9.051 116.91 9.051C116.388 9.051 115.975 9.24367 115.669 9.629C115.363 10.0143 115.21 10.496 115.21 11.074C115.21 11.754 115.448 12.4113 115.924 13.046C116.4 13.6807 117.034 14.389 117.828 15.171C118.428 15.7717 118.978 16.4007 119.477 17.058C119.987 17.7153 120.395 18.435 120.701 19.217C121.007 19.9877 121.16 20.8547 121.16 21.818C121.16 22.872 120.978 23.739 120.616 24.419C120.253 25.0877 119.749 25.5807 119.103 25.898C118.468 26.2153 117.737 26.374 116.91 26.374Z" fill="black"/>
</svg>
